<svg width="842" height="288" viewBox="0 0 842 288" fill="none" xmlns="http://www.w3.org/2000/svg">
<path d="M592.765 4.53332C591.032 14 585.699 15.4667 567.832 12C537.565 5.86665 516.099 7.33332 496.232 16.6667C484.765 22.1333 471.699 34.4 466.765 44.4C456.232 66.1333 457.965 92.4 471.032 110.267C480.899 123.467 493.432 132.267 530.099 151.733C581.699 179.067 595.165 189.2 602.899 206.267C605.299 211.333 605.832 215.2 605.965 224.667C605.965 235.733 605.565 237.467 601.565 245.733C594.232 260.667 581.565 268 557.965 270.933C534.765 273.867 512.499 267.467 499.565 254.267C489.032 243.467 481.165 225.2 479.299 207.333C477.965 194.933 477.299 192 475.165 192C473.565 192 473.299 198.8 473.565 237.6L473.965 283.333L477.032 283.733C479.565 284.133 479.965 283.6 479.965 279.733C479.965 273.867 482.365 265.333 484.099 265.333C484.765 265.333 487.699 266.533 490.365 267.867C498.765 272.133 510.899 275.6 523.565 277.333C538.632 279.467 565.832 278.4 576.632 275.467C595.699 270.133 613.832 257.733 622.632 244C631.832 229.733 635.165 209.333 631.432 190.667C628.499 176.267 624.232 168 614.099 157.6C602.899 145.867 588.099 136.133 551.565 116.8C513.965 96.9333 504.632 91.0667 497.299 83.2C489.032 74.1333 485.299 65.3333 485.299 53.8667C485.299 31.6 500.232 18.4 528.232 16.4C548.499 14.9333 564.765 20.5333 577.832 33.6C587.832 43.7333 591.832 52.8 592.899 68.4C593.699 78 593.965 78.8 596.499 78.4C599.299 78 599.299 77.4667 599.699 38.9333L599.965 -1.48037e-05H596.765C594.232 -1.48037e-05 593.432 0.933319 592.765 4.53332Z" fill="white"/>
<path d="M632.232 10.9333C632.632 13.7333 633.565 14.1333 644.632 14.9333C659.432 16.2667 667.565 19.8667 670.899 26.8C673.032 31.0667 673.299 39.7333 673.299 140.933C673.432 260.133 673.699 255.867 665.965 263.067C661.565 267.067 653.565 269.333 644.099 269.333C637.699 269.333 637.299 269.6 637.299 272.667V276L695.032 275.733C752.499 275.333 752.632 275.333 753.032 272.533C753.432 269.867 752.632 269.6 743.699 268.8C729.165 267.333 723.965 265.6 718.499 260.133C711.965 253.733 711.699 250.8 712.232 199.6C712.499 166.533 713.032 158.4 714.499 157.467C715.432 156.8 727.832 155.867 741.832 155.467C784.632 153.867 798.365 151.067 814.365 140.133C831.832 128.267 841.165 109.067 841.165 84.6667C841.299 48.2667 821.299 22.5333 785.965 13.4667C767.565 8.79999 754.365 7.99999 692.232 7.99999H631.832L632.232 10.9333ZM751.299 19.3333C781.432 25.0667 797.432 43.6 800.632 76.2667C801.699 86.6667 799.432 102.933 795.699 112.933C789.965 128.4 771.965 141.733 751.299 145.867C736.765 148.8 716.365 150 713.965 148C712.232 146.533 711.965 137.733 711.965 84.2667C711.965 28.4 712.232 22 714.232 19.7333C715.965 17.7333 718.499 17.3333 728.765 17.3333C735.565 17.3333 745.699 18.2667 751.299 19.3333Z" fill="white"/>
<path d="M0.365181 11.4667C-0.834819 14.5333 1.03185 17.3333 4.36518 17.3333C10.2318 17.3333 20.6318 21.2 25.4318 25.2C28.2318 27.4667 32.6318 33.7333 35.6985 39.6C39.9652 48 85.2985 152.4 85.2985 154C85.2985 154.267 91.5652 169.067 99.1652 186.933C119.699 235.2 133.965 268.933 137.965 278.933C139.965 284 142.365 288 143.165 288C144.099 288 155.165 264.4 167.965 235.6C180.632 206.933 193.432 178.267 196.365 172C199.299 165.733 206.232 150.4 211.965 138C222.899 114.133 224.765 110.133 237.965 81.3333C253.965 46.5333 257.832 39.6 264.765 32.5333C268.499 28.6667 273.832 24.6667 276.632 23.4667C287.565 18.9333 302.765 22.2667 304.632 29.6C305.032 31.3333 305.165 82.4 305.032 143.333L304.632 254L301.565 258.267C297.299 264.267 288.499 268 276.632 268.933C267.165 269.733 266.632 269.867 266.632 272.8C266.632 276.533 261.432 276.533 349.299 274.667C399.965 273.733 407.032 273.333 416.365 270.8C447.699 262.533 462.499 244 464.765 210.133C467.565 168.533 448.765 141.733 410.499 132.8C405.032 131.467 399.832 130.133 398.765 129.867C397.832 129.6 403.565 126 411.699 121.867C429.965 112.8 439.432 104.133 445.699 91.0667C449.699 82.5333 449.965 81.2 449.832 67.3333C449.832 55.4667 449.165 51.2 446.765 45.2C442.765 34.8 434.899 26.2667 424.899 21.4667C407.299 12.8 410.765 13.0667 294.099 11.6C191.165 10.4 187.432 10.4 185.699 12.8C184.765 14.1333 184.099 15.8667 184.365 16.6667C184.632 17.4667 192.232 18.2667 202.765 18.8C223.299 19.6 231.699 21.8667 239.432 28.5333C247.699 35.7333 247.032 38.5333 229.032 79.3333C220.499 98.4 207.165 128.133 199.299 145.333C179.432 188.933 163.432 225.067 161.299 230.933C160.232 233.733 159.032 236 158.632 236C158.232 236 156.499 232.267 154.765 227.6C146.365 205.467 133.965 174.267 129.965 164.667C109.165 115.733 80.7652 46.1333 79.4318 40.6667C76.6318 29.8667 79.9652 22.6667 89.1652 20C91.8318 19.2 104.365 18.1333 117.032 17.7333L140.099 16.9333L139.699 13.4667L139.299 9.99999L70.2318 9.86665C12.6318 9.73332 1.03185 9.99999 0.365181 11.4667ZM384.899 24.2667C400.899 30.1333 411.432 45.8667 412.899 66C414.365 85.0667 409.432 101.6 398.632 113.733C388.232 125.333 379.965 129.2 361.965 130.533C351.165 131.2 349.965 131.6 349.965 134C349.965 136.4 351.432 136.8 367.299 138.267C386.765 140 393.565 142 403.565 148.8C419.032 159.333 426.632 176.933 426.632 201.467C426.632 223.6 420.765 240.533 409.432 251.067C397.832 261.867 386.232 265.867 361.965 267.467C348.899 268.267 346.899 268.133 344.765 266C342.632 263.733 342.499 256.8 342.899 144.667C343.299 17.7333 343.032 22.4 349.699 20.8C356.232 19.3333 377.432 21.4667 384.899 24.2667Z" fill="white"/>
<path d="M642.215 261H650L650 23.4753C650 23.4753 648.574 22.9835 646.141 22.4918C643.709 22 642.249 22.2951 641.276 22C640.303 22 642.215 261 642.215 261Z" fill="#FF8806"/>
<path d="M268 261H276.421L278 30.5C278 30.5 273.312 33 271 35C269.195 36.5613 268 38.6836 268 40.733C268 44.1292 268 261 268 261Z" fill="#FF8806"/>
</svg>
